<?xml version="1.0" encoding="UTF-8"?>
<svg xmlns="http://www.w3.org/2000/svg" version="1.1" viewBox="0 0 459.2 84.7">
  <defs>
    <style>
      .cls-1 {
        fill: #fff;
      }
    </style>
  </defs>
  <!-- Generator: Adobe Illustrator 28.7.4, SVG Export Plug-In . SVG Version: 1.2.0 Build 166)  -->
  <g>
    <g id="Layer_1">
      <g>
        <g>
          <path class="cls-1" d="M35.1,15.3c-1.3-1.6-2.7-2.8-4.4-3.8-1.7-.9-3.6-1.3-5.9-1.3s-2.1.2-3.1.5c-1,.4-1.9.9-2.7,1.4-.8.6-1.4,1.3-1.8,2.2-.5.9-.7,1.8-.7,2.8,0,1.8.7,3.2,2,4.2,1.4,1.1,3,2,5.1,2.8,2,.8,4.2,1.6,6.5,2.5,2.4.9,4.5,2,6.6,3.4,2,1.4,3.7,3.2,5,5.4,1.3,2.1,2,5,2,8.4s-.5,6-1.5,8.6c-1,2.6-2.5,4.8-4.5,6.7-1.9,1.9-4.3,3.3-7.1,4.4-2.8,1-6,1.5-9.5,1.5s-8.8-1-12.3-3.3c-3.5-2.3-6.4-5.2-8.8-8.7l8.6-7.6c.4,1.2,1.1,2.4,1.9,3.5.8,1.1,1.8,2.1,2.9,2.9,1.1.8,2.3,1.4,3.6,2,1.3.5,2.6.7,4.1.7s2.5-.2,3.6-.7c1.1-.5,2-1.2,2.8-2,.8-.8,1.4-1.8,1.8-2.9.4-1.1.6-2.2.6-3.4s-.3-2.9-1.1-4c-.7-1.1-1.7-2-2.8-2.8-1.1-.7-2.4-1.3-3.8-1.8-1.5-.4-2.8-1-4.1-1.4-2.2-.9-4.3-1.7-6.1-2.7-1.9-1-3.5-2.1-4.9-3.4-1.4-1.3-2.4-2.9-3.2-4.6-.8-1.7-1.2-3.8-1.2-6.2s.5-5,1.6-7.2c1-2.3,2.3-4.2,4.2-5.9,1.8-1.7,3.9-3,6.3-4,2.4-1,5.1-1.5,8-1.5s3.2.2,4.9.5c1.8.3,3.5.8,5.2,1.4,1.7.6,3.3,1.3,4.8,2.2,1.5.9,2.8,1.8,3.9,2.9l-6.3,8.3Z"/>
          <path class="cls-1" d="M94.7,18c-1.9-2.1-4.2-3.7-6.7-4.8-2.7-1.1-5.4-1.7-8.3-1.7s-6.1.6-8.6,1.8c-2.5,1.2-4.6,2.8-6.3,4.8-1.7,2-3.1,4.3-4,6.8-.9,2.6-1.3,5.2-1.3,7.8s.4,5.2,1.4,7.7c.9,2.5,2.3,4.7,4,6.6,1.7,1.9,3.8,3.5,6.3,4.7,2.5,1.2,5.3,1.8,8.4,1.8s5.7-.6,8.4-1.8c2.6-1.3,4.9-2.8,6.8-4.8v14.4c-2.5,1.1-5,2-7.5,2.7-2.5.7-5.2,1-8,1-4.8,0-9.3-.9-13.4-2.6-4.1-1.7-7.7-4.1-10.6-7-3-2.9-5.3-6.3-7-10.2-1.7-3.9-2.5-8-2.5-12.2s.8-8.5,2.4-12.5c1.7-4,4-7.5,6.9-10.5,3-3,6.5-5.4,10.7-7.2,4.2-1.8,8.7-2.7,13.8-2.7s5.4.4,7.9,1c2.6.6,5,1.5,7.3,2.7v14.4Z"/>
          <path class="cls-1" d="M132.9,15.3c-1.3-1.6-2.8-2.8-4.4-3.8-1.7-.9-3.6-1.3-5.8-1.3s-2.1.2-3.1.5c-1,.4-1.9.9-2.6,1.4-.8.6-1.4,1.3-1.9,2.2-.5.9-.7,1.8-.7,2.8,0,1.8.7,3.2,2,4.2,1.3,1.1,3,2,5.1,2.8,2.1.8,4.2,1.6,6.5,2.5,2.3.9,4.5,2,6.6,3.4,2,1.4,3.7,3.2,5.1,5.4,1.3,2.1,2,5,2,8.4s-.6,6-1.6,8.6c-1,2.6-2.5,4.8-4.4,6.7-2,1.9-4.3,3.3-7.1,4.4-2.8,1-5.9,1.5-9.5,1.5s-8.8-1-12.3-3.3c-3.5-2.3-6.4-5.2-8.8-8.7l8.6-7.6c.5,1.2,1.1,2.4,1.9,3.5.8,1.1,1.8,2.1,2.9,2.9,1.1.8,2.4,1.4,3.6,2,1.2.5,2.6.7,4.1.7s2.6-.2,3.7-.7c1.1-.5,2-1.2,2.8-2,.8-.8,1.4-1.8,1.8-2.9.4-1.1.6-2.2.6-3.4s-.3-2.9-1.1-4c-.8-1.1-1.7-2-2.9-2.8-1.1-.7-2.5-1.3-3.8-1.8-1.5-.4-2.8-1-4.2-1.4-2.2-.9-4.2-1.7-6.1-2.7-1.9-1-3.5-2.1-4.9-3.4-1.4-1.3-2.4-2.9-3.1-4.6-.8-1.7-1.1-3.8-1.1-6.2s.5-5,1.5-7.2c1-2.3,2.4-4.2,4.2-5.9,1.8-1.7,3.9-3,6.3-4,2.4-1,5.1-1.5,8-1.5s3.2.2,4.9.5c1.8.3,3.5.8,5.2,1.4,1.7.6,3.3,1.3,4.8,2.2,1.5.9,2.8,1.8,3.9,2.9l-6.3,8.3Z"/>
        </g>
        <g>
          <path class="cls-1" d="M252.8,73.6c-.8-1.1-1.8-1.2-2.3-1.2-1.5,0-1.9.9-1.9,1.6s.1.6.4.9c.3.3.8.5,1.7.8,1.1.4,2.1.8,2.8,1.4.6.6,1.2,1.5,1.2,2.9,0,2.7-2,4.6-4.9,4.6s-4.1-1.6-4.8-2.6l1.8-1.7c.7,1.4,1.9,1.9,2.9,1.9s2.2-.8,2.2-1.9-.2-.9-.5-1.3c-.5-.5-1.4-.8-2.2-1-.7-.3-1.6-.6-2.3-1.2-.5-.4-1.1-1.2-1.1-2.6,0-2.1,1.4-4.1,4.5-4.1s2.5.2,4,1.6l-1.4,1.9Z"/>
          <path class="cls-1" d="M275.4,72.7h-5v3.1h4.8v2.3h-4.8v3.8h5v2.3h-7.7v-14h7.7v2.3Z"/>
          <path class="cls-1" d="M292.8,70.4c1.9,0,2.9.5,3.6,1,1.1.9,1.4,2.1,1.4,3.1s-.5,2.6-1.6,3.3c-.4.3-.9.5-1.5.6l4.4,5.9h-3.4l-3.7-5.6h-.3v5.6h-2.7v-14h4ZM291.5,76.8h.8c.5,0,2.7,0,2.7-2.1s-2.1-2.1-2.6-2.1h-.8v4.2Z"/>
          <path class="cls-1" d="M310.6,70.4l3.7,9.4,3.7-9.4h3l-5.9,14h-1.6l-5.9-14h3Z"/>
          <path class="cls-1" d="M334.7,70.4v14h-2.7v-14h2.7Z"/>
          <path class="cls-1" d="M357.6,83.9c-.8.4-1.9.8-3.5.8-2.4,0-3.9-.8-5.1-1.9-1.6-1.5-2.2-3.3-2.2-5.3s1-4.4,2.2-5.5c1.4-1.3,3.1-1.8,5.1-1.8s2.2.2,3.4.9v3.2c-1.3-1.5-2.9-1.6-3.4-1.6-2.8,0-4.6,2.3-4.6,4.9s2.4,4.8,4.7,4.8,2.4-.6,3.3-1.5v3.2Z"/>
          <path class="cls-1" d="M378.6,72.7h-5v3.1h4.8v2.3h-4.8v3.8h5v2.3h-7.7v-14h7.7v2.3Z"/>
          <path class="cls-1" d="M398.9,73.6c-.8-1.1-1.8-1.2-2.3-1.2-1.5,0-1.9.9-1.9,1.6s.1.6.4.9c.3.3.8.5,1.7.8,1.1.4,2.1.8,2.8,1.4.6.6,1.2,1.5,1.2,2.9,0,2.7-2,4.6-4.9,4.6s-4.1-1.6-4.8-2.6l1.8-1.7c.7,1.4,1.9,1.9,2.9,1.9s2.2-.8,2.2-1.9-.2-.9-.5-1.3c-.5-.5-1.4-.8-2.2-1-.7-.3-1.6-.6-2.3-1.2-.5-.4-1.1-1.2-1.1-2.6,0-2.1,1.4-4.1,4.5-4.1s2.5.2,4,1.6l-1.4,1.9Z"/>
        </g>
        <g>
          <path class="cls-1" d="M448.2,78.4c-.4-.6-1-.7-1.3-.7-.8,0-1.1.5-1.1.9s0,.4.2.5c.2.2.4.3.9.4.6.2,1.2.4,1.6.8.3.3.7.8.7,1.6,0,1.5-1.1,2.5-2.7,2.5s-2.2-.9-2.6-1.5l1-.9c.4.7,1.1,1,1.6,1s1.2-.4,1.2-1.1,0-.5-.3-.7c-.3-.3-.7-.4-1.2-.6-.4-.1-.9-.3-1.3-.7-.3-.2-.6-.6-.6-1.4,0-1.1.8-2.3,2.5-2.3s1.4,0,2.2.9l-.8,1Z"/>
          <path class="cls-1" d="M451.6,76.7h1.1l2,4.9,2.1-4.9h1.1l1.3,7.7h-1.5l-.7-4.7-2.1,4.7h-.5l-2-4.7-.8,4.7h-1.5l1.4-7.7Z"/>
        </g>
        <g>
          <path class="cls-1" d="M175.9,36.3c-2.9-3.3-6.4-5-10.7-5-7,0-12.4,6.2-12.4,13.1s5.3,13.2,12.9,13.2,7.5-1.9,10.2-4.9v9.2c-3.3,1.8-6.5,2.5-10.3,2.5-11,0-20-8.4-20-19.6s8.9-20.1,20.4-20.1,7,.8,9.9,2.5v9.2Z"/>
          <path class="cls-1" d="M217.8,44.4c0,11.2-8.8,19.8-19.9,19.8s-19.9-8.6-19.9-19.8,8.8-19.8,19.9-19.8,19.9,8.6,19.9,19.8ZM185.1,44.4c0,7,5.7,13,12.7,13s12.7-6,12.7-13-5.7-13-12.7-13-12.7,5.9-12.7,13Z"/>
          <path class="cls-1" d="M228.4,30.7h.2c2.2-4,6.7-6.1,11.2-6.1,10.5,0,13.2,7.1,13.2,16.2v22.2h-7.2v-21.4c0-6.4-.9-10.7-8.2-10.7s-9.2,8.1-9.2,14.9v17.1h-7.2V25.7h7.2v5Z"/>
          <path class="cls-1" d="M273.2,34.2c-.9-1.8-2.7-3.3-4.8-3.3s-3.9,1.6-3.9,3.7c0,3.3,4.3,4.7,8.7,6.7,4.4,2,8.6,4.7,8.6,10.6s-5.9,12.3-12.8,12.3-10.9-3.1-12.9-8.4l6.1-2.8c1.5,2.8,3.3,4.8,6.8,4.8s5.7-2.1,5.7-5.3-1-2.9-2.6-4.1l-7-3.7c-4.1-2.2-7.2-4.3-7.2-9.4s4.9-10.8,11-10.8,8.2,2.5,10.2,6.5l-5.8,3.1Z"/>
          <path class="cls-1" d="M291.7,25.7v20.6c0,6,1.5,11.2,8.6,11.2s8.6-5.3,8.6-11.2v-20.6h7.2v21.4c0,10.2-4.8,17.1-15.8,17.1s-15.8-6.9-15.8-17.1v-21.4h7.2Z"/>
          <path class="cls-1" d="M329.3,63h-7.2V.3h7.2v62.7Z"/>
          <path class="cls-1" d="M344.5,63h-7.2v-30.6h-3.9v-6.7h3.9v-14.3h7.2v14.3h7v6.7h-7v30.6Z"/>
          <path class="cls-1" d="M364.1,15.1c0,2.7-2.2,4.9-4.9,4.9s-4.9-2.2-4.9-4.9,2.2-5,4.9-5,4.9,2.2,4.9,5ZM362.7,63h-7.2V25.7h7.2v37.3Z"/>
          <path class="cls-1" d="M375.9,30.7h.2c2.2-4,6.7-6.1,11.2-6.1,10.5,0,13.2,7.1,13.2,16.2v22.2h-7.2v-21.4c0-6.4-.9-10.7-8.2-10.7s-9.2,8.1-9.2,14.9v17.1h-7.2V25.7h7.2v5Z"/>
          <path class="cls-1" d="M442.1,62.3c0,12.8-3.7,22.1-18.2,22.1s-17.8-6.4-18-16.9h7.2c0,6.7,4.6,10.5,11.2,10.5s10.7-6.1,10.7-13.7v-7.1h-.2c-2.9,4.2-7.4,7.1-12.7,7.1-11.5,0-17.8-9.5-17.8-20.2s6.8-19.5,17.5-19.5,10,2.9,13,7.5h.2v-6.4h7.2v36.6ZM435.4,44.4c0-7.3-4.4-13.4-12.1-13.4s-11.8,6.5-11.8,13.4,4.2,13.5,11.8,13.5,12.1-6.2,12.1-13.5Z"/>
        </g>
      </g>
    </g>
  </g>
</svg>